<svg xmlns="http://www.w3.org/2000/svg" height="99.783" width="107.965"><path d="M51.797 12.605c-20.502 0-37.121 17.324-37.121 38.694s16.619 38.695 37.12 38.695c20.502 0 37.122-17.324 37.122-38.695 0-21.37-16.62-38.694-37.121-38.694z" fill="#d70016"/><path d="M51.111 0c-7.405 0-14.23 1.16-20.472 3.479-6.244 2.32-11.64 5.644-16.19 9.968C9.9 17.774 6.355 23.013 3.814 29.168 1.271 35.321 0 42.192 0 49.773c0 7.582 1.27 14.449 3.813 20.604 2.541 6.154 6.087 11.396 10.636 15.72 4.55 4.329 9.947 7.65 16.192 9.967 6.24 2.32 13.064 3.48 20.468 3.48 7.403 0 14.229-1.16 20.473-3.48 4.288-1.59 8.165-3.668 11.654-6.207l11.828 9.926 12.9-15.375-11.583-9.72a49.8 49.8 0 002.027-4.311c2.542-6.155 3.813-13.022 3.813-20.604 0-7.58-1.27-14.451-3.813-20.605-2.543-6.155-6.089-11.393-10.637-15.72-4.55-4.325-9.946-7.648-16.189-9.97C65.338 1.16 58.514 0 51.112 0zm0 19.27c4.46 0 8.496.756 12.108 2.273 3.613 1.516 6.712 3.635 9.3 6.355 2.585 2.723 4.57 5.954 5.954 9.7 1.38 3.747 2.074 7.805 2.074 12.175 0 3.733-.517 7.183-1.484 10.383L58.15 42.611 45.252 57.984l21.615 18.139c-1.158.695-2.358 1.34-3.648 1.883-3.612 1.516-7.649 2.273-12.108 2.273-4.462 0-8.497-.757-12.109-2.273-3.613-1.518-6.714-3.635-9.3-6.358-2.588-2.72-4.569-5.93-5.952-9.632-1.384-3.7-2.074-7.782-2.074-12.243 0-4.37.69-8.428 2.074-12.175 1.382-3.746 3.365-6.977 5.953-9.7 2.586-2.72 5.687-4.839 9.3-6.355 3.612-1.517 7.646-2.273 12.108-2.273z" fill="#0f1848"/></svg>